<svg width="18" height="21" viewBox="0 0 18 21" fill="none" xmlns="http://www.w3.org/2000/svg">
<path d="M10.8227 19.9258C13.3095 17.7061 17.7339 13.1711 17.7339 9.00952C17.7339 6.70689 16.832 4.49857 15.2266 2.87037C13.6211 1.24217 11.4437 0.327454 9.17334 0.327454C6.90294 0.327454 4.72553 1.24217 3.12012 2.87037C1.51471 4.49857 0.612793 6.70689 0.612793 9.00952C0.612793 13.1711 5.03574 17.7061 7.52401 19.9258C7.97788 20.3366 8.56497 20.5637 9.17334 20.5637C9.78171 20.5637 10.3688 20.3366 10.8227 19.9258ZM6.31982 9.00952C6.31982 8.24198 6.62046 7.50587 7.1556 6.96314C7.69074 6.4204 8.41654 6.1155 9.17334 6.1155C9.93014 6.1155 10.6559 6.4204 11.1911 6.96314C11.7262 7.50587 12.0269 8.24198 12.0269 9.00952C12.0269 9.77706 11.7262 10.5132 11.1911 11.0559C10.6559 11.5986 9.93014 11.9035 9.17334 11.9035C8.41654 11.9035 7.69074 11.5986 7.1556 11.0559C6.62046 10.5132 6.31982 9.77706 6.31982 9.00952Z" fill="#185CFF"/>
</svg>
